<svg aria-hidden="true" style="position:absolute;width:0;height:0;overflow:hidden" xmlns="http://www.w3.org/2000/svg"><defs><symbol id="icon-antenna" viewBox="0 0 32 32"><path fill="#212121" style="fill:var(--color1, #212121)" d="m30.773 22.098-8.443-8.505.937-4.615c.225.09.485.144.758.146h.007c1.192.014 2.17-.941 2.184-2.133s-.941-2.17-2.133-2.184c-1.192-.014-2.17.941-2.184 2.133v.026c0 .259.046.508.13.738l-.005-.015-4.96.605L8.973.161a.53.53 0 0 0-.376-.16.531.531 0 0 0-.373.155L6.711 1.66a.5335.5335 0 0 0 0 .754l.814.826c-3.153 5.798-2.129 12.978 2.519 17.663.043.041.092.074.146.098a2.986 2.986 0 0 0-.052.546v6.188h-6.4c-1.472.002-2.665 1.195-2.667 2.667v1.067c0 .295.239.533.533.533h24.533c.295 0 .533-.239.533-.533v-1.067c-.002-1.472-1.195-2.665-2.667-2.667h-6.4v-2.742c.915.201 1.968.317 3.047.32h.002c2.58-.003 5.005-.663 7.117-1.822l-.077.039.818.823a.534.534 0 0 0 .377.16.531.531 0 0 0 .373-.155l1.513-1.504a.5335.5335 0 0 0 0-.754zM23.28 6.233c.418-.415 1.093-.414 1.508.004s.414 1.093-.004 1.508c-.193.192-.459.31-.752.31h-.003c-.589-.003-1.064-.483-1.061-1.072.002-.294.122-.559.314-.751h-.002zm-1.256 3.505-.598 2.946-1.175-1.182 1.774-1.763zm-.605-.902-1.92 1.909-1.485-1.493 3.405-.415zM24.004 28.8c.884 0 1.6.716 1.6 1.6v.533H2.137V30.4c0-.884.716-1.6 1.6-1.6h20.267zm-7.467-2.133v1.067h-5.333v-1.067h5.333zM11.204 25.6v-4.053c0-1.294 1.196-2.347 2.667-2.347s2.667 1.053 2.667 2.347V25.6h-5.333zm6.4-1.696v-2.357c0-1.882-1.675-3.413-3.733-3.413h-.058c-1.353 0-2.54.707-3.213 1.771l-.009.016C6.533 15.647 5.62 9.276 8.312 4.034l18.602 18.708c-1.823.947-3.98 1.502-6.266 1.502-1.079 0-2.128-.124-3.136-.357l.093.018zm11.289-.684L7.836 2.039l.755-.752 7.935 7.98c.004 0 .006.007.01.01l13.115 13.191-.757.752z"/><path fill="#2196f3" style="fill:var(--color2, #2196f3)" d="M13.876 20.267h-.005c-.884-.001-1.601.714-1.602 1.598s.714 1.601 1.598 1.602h.005c.884.001 1.601-.714 1.602-1.598s-.714-1.601-1.598-1.602zm.373 1.978a.5297.5297 0 0 1-.376.155h-.002a.5343.5343 0 0 1-.531-.536.5344.5344 0 0 1 .53-.531c.295.002.532.241.53.536a.5333.5333 0 0 1-.157.375h.005z"/></symbol><symbol id="icon-clock" viewBox="0 0 32 32"><path fill="#212121" style="fill:var(--color1, #212121)" d="M31.297 15.301C31.295 6.849 24.442-.002 15.989 0S.686 6.855.688 15.308c.001 6.658 4.307 12.551 10.649 14.576.061.019.124.029.187.029.126 0 .245-.035.346-.095l-.003.002a.639.639 0 0 0 .282-.352l.001-.005 3.865-12.25c1.057-.005 1.909-.866 1.903-1.923s-.866-1.909-1.923-1.903c-.299.001-.581.072-.831.196l.011-.005-5.106-5.107a.6372.6372 0 0 0-.902.016.637.637 0 0 0 0 .886l5.103 5.109c-.392.799-.168 1.764.536 2.309l-3.683 11.673C3.845 25.783.119 17.71 2.8 10.432S13.554-.572 20.832 2.109c7.278 2.681 11.004 10.754 8.323 18.032-1.345 3.581-4.003 6.406-7.374 7.938l-.088.036-.398-1.874a.638.638 0 0 0-.756-.492.639.639 0 0 0-.293.149l.001-.001-3.837 3.426a.6366.6366 0 0 0-.052.9c.076.085.174.149.283.184l4.899 1.563c.335.108.694-.077.802-.412a.6375.6375 0 0 0 .031-.195c0-.047-.005-.092-.015-.136l.001.004-.391-1.839c5.664-2.388 9.342-7.942 9.329-14.089zm-15.305-.637c.352 0 .638.286.638.638s-.286.638-.638.638c-.352 0-.638-.285-.638-.638s.285-.638.638-.638zm2.101 14.864 2.184-1.948.603 2.84-2.787-.892z"/><path fill="#2196f3" style="fill:var(--color2, #2196f3)" d="M15.354 3.185V4.46c0 .352.285.638.638.638s.638-.285.638-.638V3.185c0-.352-.286-.638-.638-.638s-.638.286-.638.638zM3.876 14.664c-.352 0-.638.286-.638.638s.285.638.638.638h1.275c.352 0 .638-.285.638-.638s-.285-.638-.638-.638H3.876zm24.232 1.275c.352 0 .638-.285.638-.638s-.285-.638-.638-.638h-1.275c-.352 0-.638.286-.638.638s.286.638.638.638h1.275z"/></symbol><symbol id="icon-diagram" viewBox="0 0 32 32"><path fill="#2196f3" style="fill:var(--color2, #2196f3)" d="M14.926 14.965h1.066v4.798h-1.066v-4.797zm4.264 2.132h1.066v2.665H19.19v-2.665zm-8.529 1.599h1.066v1.066h-1.066v-1.066zm-3.198-.533h1.066v1.599H7.463v-1.599z"/><path fill="#212121" style="fill:var(--color1, #212121)" d="M1.599 28.291h25.587c.883 0 1.599-.716 1.599-1.599V24.56c0-.883-.716-1.599-1.599-1.599h-.533V9.668L29.681 6.8c.703.346 1.553.136 2.013-.499s.396-1.508-.152-2.068-1.42-.644-2.065-.198-.873 1.292-.542 2.002L26.654 8.2V6.97c0-.883-.716-1.599-1.599-1.599H3.733c-.883 0-1.599.716-1.599 1.599v15.992h-.533c-.883 0-1.599.716-1.599 1.599v2.132c0 .883.716 1.599 1.599 1.599zM30.384 4.837c.294 0 .533.239.533.533s-.239.533-.533.533c-.294 0-.533-.239-.533-.533s.239-.533.533-.533zM3.198 6.969c0-.294.239-.533.533-.533h21.322c.294 0 .533.239.533.533v2.239l-1.066 1.013V8.035c0-.294-.239-.533-.533-.533H4.797c-.294 0-.533.239-.533.533v13.326c0 .294.239.533.533.533h19.19c.294 0 .533-.239.533-.533v-9.674l1.066-1.01v12.284H3.198V6.969zm4.798 6.93c-.721-.002-1.354.478-1.546 1.174s.105 1.433.725 1.801c.62.368 1.41.276 1.928-.226l1.853.93a.5341.5341 0 0 0 .636-.122v-.001l3.939-4.431 3.872 2.901a.5355.5355 0 0 0 .687-.04l3.365-3.188v8.131H5.331V8.568h18.124v2.66L19.684 14.8l-3.904-2.927a.5332.5332 0 0 0-.718.072l-3.993 4.493-1.493-.746c.01-.056.017-.123.02-.19v-.003c0-.883-.716-1.599-1.599-1.599zm.533 1.599c0 .294-.239.533-.533.533s-.533-.239-.533-.533c0-.294.239-.533.533-.533s.533.239.533.533zm3.198 8.529h5.331v.533c0 .294-.239.533-.533.533h-4.264a.5335.5335 0 0 1-.533-.533v-.533zm-10.661.533c0-.294.239-.533.533-.533h9.062v.533c0 .883.716 1.599 1.599 1.599h4.264c.883 0 1.599-.716 1.599-1.599v-.533h9.062c.294 0 .533.239.533.533v2.132c0 .294-.239.533-.533.533H1.598a.5335.5335 0 0 1-.533-.533V24.56z"/></symbol><symbol id="icon-astronaut" viewBox="0 0 32 32"><path fill="#2196f3" style="fill:var(--color2, #2196f3)" d="M31.974 4.524c-.064-.191-.227-.332-.427-.362h-.003l-1.91-.278-.855-1.731c-.179-.365-.777-.365-.956 0l-.855 1.731-1.91.278a.5352.5352 0 0 0-.43.359l-.001.004a.5342.5342 0 0 0 .135.547l1.383 1.348-.326 1.903c-.034.2.048.402.212.522a.528.528 0 0 0 .313.102c.091 0 .177-.023.252-.063l-.003.001 1.709-.899 1.709.899c.078.041.164.061.249.061.11 0 .221-.034.314-.102.134-.098.22-.254.22-.431 0-.032-.003-.063-.008-.094v.003l-.326-1.903 1.383-1.348a.5348.5348 0 0 0 .134-.55l.001.004zm-2.463 1.327a.5331.5331 0 0 0-.161.382c0 .032.003.063.008.094v-.003l.191 1.114-1-.526a.5203.5203 0 0 0-.248-.061H28.3c-.085 0-.17.02-.249.061l-1.001.526.191-1.114a.5021.5021 0 0 0 .008-.09c0-.15-.062-.285-.161-.382l-.81-.789 1.119-.163a.5335.5335 0 0 0 .4-.289l.001-.003.5-1.013.5 1.013c.078.157.228.267.402.292l1.119.163-.809.789zm-3.377 14.671h-1.067v1.067h1.067v-1.067zm0 2.134h-1.067v1.067h1.067v-1.067zm1.066-1.067h-1.067v1.067H27.2v-1.067zm-2.133 0H24v1.067h1.067v-1.067zm-2.667 4.8h-1.067v1.067H22.4v-1.067zm0 2.133h-1.067v1.067H22.4v-1.067zm1.067-1.066H22.4v1.067h1.067v-1.067zm-2.134 0h-1.067v1.067h1.067v-1.067zM16 24.256h-1.067v1.067H16v-1.067zm0 2.133h-1.067v1.067H16v-1.067zm1.067-1.067H16v1.067h1.067v-1.067zm-2.134 0h-1.067v1.067h1.067v-1.067zm-9.066-19.2H4.8v1.067h1.067V6.122zm0 2.133H4.8v1.067h1.067V8.255z"/><path fill="#2196f3" style="fill:var(--color2, #2196f3)" d="M6.933 7.189H5.866v1.067h1.067V7.189zm-2.133 0H3.733v1.067H4.8V7.189z"/><path fill="#212121" style="fill:var(--color1, #212121)" d="M24.715 14.159c-.287-.388-.709-.637-1.188-.705-.481-.068-.956.058-1.34.352l-1.252.96-1.898 1.417-1.358-.541c2.421-1.086 4.114-3.508 4.114-6.32 0-3.823-3.123-6.933-6.961-6.933s-6.961 3.11-6.961 6.933c0 1.386.414 2.674 1.12 3.758l-2.769-.024c-.009 0-.015.004-.023.005a.5547.5547 0 0 0-.159.032l.004-.001c-.013.005-.026.008-.038.013-.006.003-.013.003-.019.006l-3.233 1.596c-.001 0-.001 0-.001.001l-1.893.911a.4288.4288 0 0 0-.064.036l.001-.001c-.755.502-1.012 1.489-.598 2.295.22.429.595.745 1.056.889.161.052.347.083.539.083.29 0 .577-.071.839-.211l1.388-.738 2.264-1.169 1.357-.008L2.2 22.211c-.001.001-.001.001-.002.001L.859 23.545c-.316.315-.49.732-.49 1.178s.174.863.49 1.179c.325.323.752.485 1.179.485s.854-.162 1.18-.485l1.314-1.309 1.741-1.3.901.897-1.762 1.754c0 .001-.001.001-.002.001l-1.339 1.333c-.316.315-.49.732-.49 1.178s.174.863.49 1.179c.325.323.753.485 1.18.485s.855-.162 1.18-.485l3.482-3.467c.001-.001.001-.001.001-.002l1.01-1-.004-.004c.006-.006.015-.009.022-.015l5.166-5.658 3.471.494c.022.003.048.005.073.005h.002c.065 0 .127-.015.187-.038.018-.006.033-.015.05-.023.019-.01.039-.015.058-.027l3.213-2.133c.012-.008.018-.021.029-.029.013-.01.029-.014.041-.026l1.271-1.191c.662-.62.753-1.635.212-2.362zM2.13 17.77a.714.714 0 0 1-.558.052.7167.7167 0 0 1-.427-.358.714.714 0 0 1 .214-.902l1.314-.632.449 1.312-.992.528zm3.498-1.828-1.548.8-.439-1.283 2.027-1.001-.04 1.484zm15.099-6.62c0 .918-.219 1.785-.599 2.559l-4.181-1.899c-.044-.573-.341-1.075-.788-1.388l1.464-4.86c2.378.756 4.105 2.974 4.105 5.588zm-11.789 0c0-3.235 2.644-5.867 5.894-5.867.253 0 .5.021.745.052l-1.432 4.754c-.019-.001-.037-.006-.057-.006-1.033 0-1.873.837-1.873 1.867s.84 1.867 1.873 1.867c.694 0 1.294-.383 1.618-.945l3.862 1.755c-1.075 1.446-2.795 2.39-4.737 2.39-3.25 0-5.894-2.632-5.894-5.867zm5.956.8c0 .441-.362.8-.806.8s-.806-.359-.806-.8c0-.441.362-.8.806-.8s.806.359.806.8zM2.465 25.146c-.236.234-.619.234-.854.001-.114-.114-.176-.263-.176-.423s.062-.309.176-.421l.962-.958.851.848-.959.955zm3.214 3.734c-.236.234-.619.235-.855.001-.114-.114-.176-.263-.176-.423s.062-.309.176-.421l.963-.959.852.848-.96.955zm3.481-3.469c-.001 0-.001 0-.002.001l-1.765 1.76-.852-.848 1.763-1.756c.001-.001.001-.001.002-.001.04-.04.065-.088.09-.135.007-.014.02-.026.026-.04.017-.041.019-.085.026-.129.003-.025.014-.047.014-.073 0-.036-.013-.07-.02-.106-.006-.032-.006-.065-.019-.095-.02-.05-.055-.094-.091-.138-.01-.012-.014-.027-.025-.038h-.001c-.001 0-.001-.002-.001-.002l-1.607-1.6c-.017-.017-.039-.024-.058-.038a.5067.5067 0 0 0-.087-.058c-.03-.015-.061-.024-.093-.033a.5073.5073 0 0 0-.103-.02.5002.5002 0 0 0-.095.005.5307.5307 0 0 0-.104.02c-.034.011-.063.027-.094.045-.02.011-.042.015-.061.029L4.23 23.485l-.901-.897 2.399-2.386 4.361 4.289-.928.919zm6.819-7.017c-.015-.002-.03.004-.045.003-.008 0-.017-.001-.026-.001-.031 0-.062.003-.092.008h.003a.5364.5364 0 0 0-.088.021c-.034.012-.065.028-.097.047s-.059.039-.084.062c-.013.011-.028.017-.04.029l-4.698 5.146-4.328-4.257 2.833-2.818c.209-.208.21-.546.002-.755a.5314.5314 0 0 0-.381-.156v-.001l-2.219.013.028-1.607 3.104.027c1.265 1.294 3.029 2.101 4.981 2.101.437 0 .864-.045 1.279-.123.04.032.079.065.13.085l2.41.96.331 1.644-3.003-.427zm4.041.178-.313-1.558 1.446-1.08.947 1.257-2.08 1.381zm3.754-2.831-.838.785-.931-1.236.831-.637c.155-.119.351-.168.543-.143.193.027.364.128.48.284.217.292.18.699-.085.947z"/><path fill="#212121" style="fill:var(--color1, #212121)" d="m13.602 18.544-2.143-2.133c-.207-.207-.545-.207-.753 0l-2.142 2.133a.532.532 0 0 0-.157.378c0 .142.056.278.157.378l2.142 2.133c.104.103.241.155.377.155s.273-.052.376-.155l2.143-2.133a.532.532 0 0 0 .157-.378c0-.142-.057-.278-.157-.378zm-2.519 1.759-1.387-1.381 1.387-1.381 1.387 1.381-1.387 1.381zm6.081-15.232-.258 1.036c.071.018 1.738.452 1.738 2.149h1.067c0-2.017-1.666-2.965-2.547-3.185zm2.547 4.251h-1.067v1.067h1.067V9.322z"/></symbol><symbol id="icon-envelope" viewBox="0 0 32 32"><path d="M29.007 4.005H3.001C1.347 4.005 0 5.351 0 7.006V25.01c0 1.655 1.346 3.001 3.001 3.001h26.006c1.655 0 3.001-1.346 3.001-3.001V7.006c0-1.654-1.346-3.001-3.001-3.001zm0 2c.138 0 .27.029.39.08l-.006-.002-13.386 11.602L2.618 6.083a.9696.9696 0 0 1 .383-.077h26.006zm0 20.005H3.001c-.552 0-1-.448-1-1V8.196l13.348 11.568c.174.152.403.244.654.244h.002c.251 0 .48-.092.655-.245l-.001.001L30.007 8.196V25.01c0 .552-.448 1-1 1z"/></symbol><symbol id="icon-smartphone" viewBox="6 0 32 32"><path d="M23.002 0H8.999C7.344 0 5.998 1.346 5.998 3.001v26.006c0 1.655 1.346 3.001 3.001 3.001h14.003c1.655 0 3.001-1.346 3.001-3.001V3.001C26.003 1.346 24.657 0 23.002 0zM8.998 2.001h14.003c.552 0 1 .448 1 1v21.005H7.997V3.001c0-.552.448-1 1-1zm14.004 28.006H8.999c-.552 0-1-.448-1-1v-3.001h16.004v3.001c0 .552-.448 1-1 1z"/><path d="M10.706 27.485c.391.365.391.956 0 1.321s-1.024.365-1.414 0c-.391-.365-.391-.956 0-1.321s1.024-.365 1.414 0z"/></symbol><symbol id="icon-client-one" viewBox="0 0 32 32"><path d="m6.127 0 4.772 4.518-8.858-.005v21.918h23.153v-8.38l4.767 4.513V.001H6.127zm18.858 17.52L11.454 4.711h13.531V17.52zm-4.201 5.705H5.705V8.484h1.066v13.743h14.013v.998zM9.266 29.349l-.557 1.147-.557-1.147h-.467l.813 1.529v.891h.422v-.891l.811-1.529h-.466zm.7 2.421.196-.564h.938l.198.564h.439l-.916-2.421h-.377L9.53 31.77h.437zm.665-1.907.351 1.004h-.702l.351-1.004zm2.218.946a.5473.5473 0 0 0-.091.304v.004c0 .204.072.37.214.497.144.126.336.189.575.189s.446-.065.618-.194l.136.161h.469l-.356-.421c.14-.191.209-.435.209-.733h-.351c0 .163-.034.311-.101.444l-.467-.552.165-.12c.116-.084.2-.168.251-.253a.53.53 0 0 0 .076-.275v-.004c0-.153-.057-.281-.17-.384-.112-.104-.256-.156-.432-.156-.195 0-.35.055-.466.166s-.173.259-.173.449c0 .078.018.158.055.241.038.083.104.184.198.303-.18.129-.3.24-.361.334zm1.092.535c-.119.091-.246.136-.382.136-.121 0-.217-.035-.289-.105s-.108-.161-.108-.273c0-.13.067-.245.2-.346l.052-.037.529.623zm-.434-1.072c-.114-.141-.171-.258-.171-.351 0-.081.023-.148.07-.201s.109-.08.188-.08c.073 0 .134.023.181.068.048.044.072.098.072.161 0 .095-.034.173-.103.234l-.052.042-.185.126zm3.94 1.315c.166-.145.262-.347.286-.605h-.419c-.022.173-.075.296-.158.371s-.207.111-.372.111c-.181 0-.318-.069-.412-.206-.093-.137-.14-.337-.14-.599v-.214c.002-.258.052-.454.15-.587.099-.134.239-.201.422-.201.157 0 .277.039.357.116.082.076.133.202.153.376h.419c-.027-.265-.121-.47-.284-.615s-.378-.218-.645-.218c-.198 0-.373.047-.525.141-.151.094-.267.228-.347.402s-.121.375-.121.604v.226c.003.223.045.418.125.587s.193.299.339.391c.147.091.318.136.51.136.276 0 .497-.072.663-.216zm2.472-.339c.082-.18.123-.388.123-.625v-.135c-.001-.236-.043-.443-.126-.62s-.201-.315-.354-.409c-.152-.095-.326-.143-.524-.143s-.372.048-.525.145c-.152.095-.27.233-.354.414-.083.181-.125.389-.125.625v.136c.001.232.043.436.126.613.084.177.203.314.356.411.154.095.329.143.525.143.198 0 .373-.048.525-.143.153-.096.27-.234.352-.412zm-.45-1.369c.102.143.153.349.153.617v.126c0 .273-.05.48-.151.622-.1.142-.243.213-.429.213-.184 0-.328-.073-.432-.218-.103-.145-.155-.351-.155-.617v-.14c.002-.26.054-.462.156-.604.103-.143.245-.214.427-.214.186 0 .33.072.431.214z"/></symbol><symbol id="icon-client-two" viewBox="0 0 32 32"><path d="M14.223 1.806h-.084a9.9847 9.9847 0 0 0-.388-.014h-.28c-.244 0-.494.006-.741.019-.008-.001-.018-.001-.028-.001s-.02 0-.029.001h.001c-2.376.139-4.582.733-6.576 1.697l.104-.045-.266.128v13.627l.623-.211c.547-.188 1.129-.357 1.731-.513 1.489-.398 3.202-.638 4.968-.662h.014v1.79c-.236.002-.465.009-.692.02l.037-.002h-.051c-1.399.079-2.71.289-3.972.619l.139-.031c-1.734.441-3.254 1.05-4.667 1.83l.1-.051V2.529C5.545 1.709 7.141 1.041 8.83.608L8.957.58c1.353-.364 2.908-.576 4.512-.582h.267c.315.008.621.022.909.044.83.06 1.598.187 2.34.378l-.09-.02v1.762c-.628-.154-1.373-.271-2.134-.326l-.045-.003-.045-.004c-.152-.013-.304-.026-.446-.026zm3.102 1.802c.391.03.796.044 1.205.044 1.689-.006 3.324-.228 4.882-.639l-.135.03c1.734-.443 3.253-1.053 4.666-1.832l-.101.051v17.166c-1.38.819-2.975 1.487-4.665 1.921l-.127.028c-1.353.363-2.908.574-4.511.581h-.115c-1.177 0-2.319-.147-3.41-.425l.095.021V3.277c.265.061.537.117.814.164.455.077.934.133 1.401.167zm8.736.133-.623.21c-.376.138-.954.315-1.539.474l-.192.044c-1.551.415-3.333.657-5.17.664h-.004c-.406 0-.78-.011-1.141-.034l-.497-.033v14.019l.427.038c.395.034.803.052 1.214.052 1.451-.006 2.854-.198 4.19-.553l-.116.026c1.221-.31 2.281-.702 3.286-1.189l-.102.044.266-.128V3.743zM5.375 25.981a.915.915 0 0 0-.311-.212l-.006-.002a.9.9 0 0 0-.343-.067c-.012 0-.023 0-.035.001h.002-.014c-.139 0-.272.028-.393.078l.007-.003a.9312.9312 0 0 0-.311.205.8986.8986 0 0 0-.199.307l-.002.006c-.045.111-.072.24-.072.375v.012-.001 2.335c-.006.165.026.328.092.479.055.12.135.226.233.313.093.079.203.135.321.166.114.032.231.048.349.049h.009c.134 0 .26-.03.374-.084l-.005.002a.99.99 0 0 0 .311-.216c.084-.088.153-.192.201-.306l.003-.007a.9335.9335 0 0 0 .075-.368v-.266h-.61v.222c0 .07-.013.137-.037.198l.001-.004a.3669.3669 0 0 1-.089.131.396.396 0 0 1-.125.067l-.003.001a.4275.4275 0 0 1-.127.022.3093.3093 0 0 1-.162-.025l.002.001a.319.319 0 0 1-.126-.1l-.001-.001A.5477.5477 0 0 1 4.303 29c0-.008 0-.017.001-.025v.001-2.2c0-.119.028-.23.077-.33l-.002.004a.317.317 0 0 1 .128-.113l.002-.001c.039-.019.084-.03.132-.03.013 0 .026.001.039.002h-.002.012c.107 0 .201.051.26.131l.001.001c.063.082.101.187.101.301v.013-.001.202h.604v-.248c0-.143-.027-.28-.077-.406l.003.007a.9679.9679 0 0 0-.204-.329zm3.626-.027a1.083 1.083 0 0 0-.694-.257c-.131.001-.256.025-.372.068l.007-.002a.986.986 0 0 0-.323.192l.001-.001a.9667.9667 0 0 0-.234.321l-.002.006a1.074 1.074 0 0 0-.089.431v.022-.001 2.24c-.004.158.026.314.089.459.055.12.136.227.237.313a.939.939 0 0 0 .322.197c.117.043.24.065.364.066.131 0 .256-.024.372-.068l-.007.002c.127-.047.237-.114.331-.198l-.001.001a.958.958 0 0 0 .228-.307l.002-.006c.056-.127.089-.274.089-.43v-.03.002-2.261c0-.156-.033-.304-.092-.438l.003.007a1.027 1.027 0 0 0-.23-.327zm-.285 3.019c.001.01.001.022.001.034 0 .114-.047.216-.123.289a.4455.4455 0 0 1-.287.105c-.11 0-.21-.04-.288-.105l.001.001a.4001.4001 0 0 1-.123-.289c0-.012.001-.024.002-.036v.002-2.24c-.001-.01-.001-.022-.001-.034 0-.114.047-.216.123-.289a.4455.4455 0 0 1 .287-.105c.11 0 .21.04.288.105l-.001-.001c.076.073.123.176.123.29 0 .012-.001.024-.002.036v-.002 2.24zm5.048 1v-4.24h-.587l-.771 2.244h-.011l-.777-2.244h-.581v4.24h.606v-2.579h.011l.593 1.823h.302l.598-1.823h.011v2.579h.606zm3.441-3.942a.8458.8458 0 0 0-.337-.23l-.006-.002c-.124-.042-.267-.066-.416-.066h-.024.001-.9v4.24h.604v-1.656h.311c.189.009.376-.031.545-.116a.8794.8794 0 0 0 .329-.32l.002-.004c.067-.106.115-.23.138-.363l.001-.006c.021-.134.033-.288.033-.444v-.04.002c.001-.021.001-.045.001-.07 0-.19-.022-.375-.063-.552l.003.016a.906.906 0 0 0-.223-.39zm-.311 1.293a.5417.5417 0 0 1-.057.224l.001-.003a.3442.3442 0 0 1-.154.148l-.002.001a.6092.6092 0 0 1-.253.054c-.011 0-.022 0-.033-.001h.002-.276v-1.441h.311c.008 0 .018-.001.028-.001.089 0 .173.02.248.055l-.004-.002c.062.036.111.09.141.154l.001.002c.033.074.051.155.053.236v.282c0 .099.006.2 0 .291h-.006zm3.173-1.59h-.495l-.934 4.24h.604l.177-.911h.824l.177.911h.604l-.958-4.24zm-.558 2.751.297-1.537h.011l.296 1.537h-.604zm4.461-.197h-.011l-.912-2.554h-.581v4.24h.604v-2.55h.012l.923 2.55h.568v-4.24h-.604v2.554zm3.692-2.554-.486 1.686h-.012l-.486-1.686h-.64l.83 2.448v1.792h.604v-1.792l.83-2.448h-.64zM3.69 31.171h.291v.817h.198v-.817h.29v-.167H3.69v.167zm2.448-.168-.381.984h.21l.081-.224h.392l.084.224h.215l-.391-.984h-.21zm-.031.595.134-.365.134.365h-.268zm2.451.027h.227v.127a.3778.3778 0 0 1-.233.083h-.014a.2466.2466 0 0 1-.194-.094.41.41 0 0 1-.074-.235c0-.008 0-.015.001-.023v.001c0-.219.095-.329.283-.329.006-.001.013-.001.021-.001.045 0 .086.014.12.038h-.001c.04.029.07.07.082.118v.001l.195-.038c-.042-.193-.181-.29-.417-.29h-.013c-.127 0-.244.048-.332.127a.4818.4818 0 0 0-.111.17l-.001.003a.4794.4794 0 0 0-.031.169c0 .013.001.025.001.038v-.002c0 .007-.001.015-.001.023 0 .132.048.254.127.347l-.001-.001c.087.089.208.145.342.145.011 0 .022 0 .033-.001h-.001.016c.155 0 .296-.06.401-.157v-.388h-.427v.166zm2.471-.622h-.199v.984h.69v-.167h-.49v-.817zm2.089 0h-.199v.984h.199v-.984zm2.043.657-.403-.657h-.193v.984h.185v-.643l.396.643h.198v-.984h-.182v.657zm1.846-.106h.49v-.167h-.49v-.216h.528v-.167h-.727v.984h.747v-.167h-.548v-.266zm4.478-.163h-.388v-.388h-.198v.984h.198v-.43h.388v.43h.198v-.984h-.198v.388zm1.858.163h.492v-.167h-.492v-.216h.529v-.167h-.727v.984h.746v-.167h-.548v-.266zm2.519 0c.171-.027.258-.117.258-.274a.233.233 0 0 0-.096-.219h-.001a.555.555 0 0 0-.25-.059c-.013 0-.027 0-.04.001h.002-.417v.984h.198v-.412h.055c.039 0 .075.008.108.023l-.002-.001c.029.018.053.042.07.071l.001.001.215.313h.237l-.12-.193a.6968.6968 0 0 0-.216-.235l-.002-.002zm-.199-.136h-.146v-.247h.156a.5154.5154 0 0 1 .205.024l-.004-.001c.027.024.043.058.043.096 0 .043-.021.08-.052.104a.5387.5387 0 0 1-.165.025c-.013 0-.025 0-.038-.001h.002zm2.099.136h.49v-.167h-.49v-.216h.529v-.167h-.729v.984h.747v-.167h-.548v-.266z"/></symbol><symbol id="icon-client-three" viewBox="0 0 32 32"><path d="M5.267 30.297c.012 0 .023.003.033.007h-.001c.011.004.02.01.027.017l.155.148c-.12.12-.269.216-.436.281-.172.064-.371.102-.579.102h-.042.002-.032c-.197 0-.386-.035-.562-.098l.011.004c-.166-.06-.316-.151-.438-.266-.125-.119-.221-.259-.283-.411s-.099-.327-.099-.511v-.017.001-.017c0-.185.039-.361.11-.52l-.003.008c.068-.153.17-.293.3-.411.132-.116.291-.207.465-.268.173-.06.372-.094.579-.094h.021-.001.036c.186 0 .365.032.532.09l-.011-.003c.154.058.295.138.417.238l-.13.158a.1218.1218 0 0 1-.032.028h-.001a.0841.0841 0 0 1-.045.012h-.008a.1225.1225 0 0 1-.057-.017h.001l-.07-.042-.097-.054a1.0998 1.0998 0 0 0-.122-.05l-.008-.002a1.293 1.293 0 0 0-.168-.041l-.008-.001a1.286 1.286 0 0 0-.213-.017h-.019.001-.015c-.149 0-.291.026-.424.074l.009-.003a.9995.9995 0 0 0-.337.199c-.097.092-.171.2-.219.317-.05.12-.08.258-.08.404v.014-.001.016c0 .147.029.288.082.416l-.003-.007c.047.116.12.223.215.315.089.086.199.152.322.195.127.046.262.068.399.067h.023c.075 0 .149-.005.222-.015l-.009.001a.9273.9273 0 0 0 .363-.115l-.005.002c.058-.034.108-.068.155-.106l-.002.002a.126.126 0 0 1 .074-.027zm4.478-.745v.015c0 .184-.039.359-.108.517l.003-.008c-.063.152-.163.291-.292.407s-.286.207-.458.267c-.176.06-.379.094-.589.094s-.413-.035-.603-.098l.013.004c-.172-.061-.327-.152-.456-.268-.129-.118-.23-.258-.295-.411-.14-.339-.14-.71 0-1.05.066-.153.166-.293.295-.413.13-.112.285-.2.456-.258.176-.061.379-.096.589-.096s.414.035.602.1l-.013-.004c.172.061.328.152.458.268.128.117.227.255.293.406.072.169.107.347.105.527zm-.407 0v-.022c0-.143-.027-.281-.076-.406l.003.008a.8633.8633 0 0 0-.207-.315c-.091-.087-.203-.154-.328-.199-.128-.044-.275-.069-.428-.069s-.301.025-.438.072l.01-.003a.912.912 0 0 0-.328.199.8362.8362 0 0 0-.209.315c-.047.125-.074.27-.074.421s.027.296.077.43l-.003-.009c.044.117.115.224.209.315.091.086.203.153.328.197.128.043.275.067.428.067s.3-.025.438-.07l-.01.003c.125-.044.237-.111.328-.197.093-.092.164-.199.207-.315.047-.118.074-.254.074-.397v-.025.001zm3.463.442.041.094c.015-.034.029-.064.045-.094a.7134.7134 0 0 1 .053-.096l-.002.004.991-1.565c.019-.027.037-.044.056-.049s.044-.009.068-.009h.014-.001.293v2.545h-.347v-1.951c-.001-.013-.001-.028-.001-.044s.001-.031.002-.046v.002l-.997 1.587a.1538.1538 0 0 1-.058.058h-.001a.1772.1772 0 0 1-.084.021H12.812c-.03 0-.059-.008-.084-.021h.001a.1447.1447 0 0 1-.058-.057v-.001l-1.026-1.597v2.043h-.335v-2.54h.307c.024 0 .047.003.069.009h-.002c.023.01.042.027.054.048v.001l1.012 1.567c.018.026.035.056.049.087l.001.003zm3.728-.127v.953h-.388v-2.542h.897c.16 0 .316.02.464.059l-.013-.003c.125.031.242.085.341.158.086.069.153.154.194.249a.766.766 0 0 1 .066.325v.01a.717.717 0 0 1-.074.32l.002-.004a.698.698 0 0 1-.209.254.972.972 0 0 1-.336.167l-.007.002c-.131.038-.281.059-.436.059h-.033.002l-.469-.007zm0-.273h.482c.102 0 .201-.014.295-.041l-.008.002a.6561.6561 0 0 0 .219-.111l-.002.001a.4523.4523 0 0 0 .131-.166l.001-.003a.4853.4853 0 0 0 .047-.208v-.006c.001-.008.001-.017.001-.027 0-.066-.015-.128-.041-.183l.001.003a.5032.5032 0 0 0-.135-.173l-.001-.001c-.148-.1-.334-.149-.522-.136h-.469v1.048zm5.212 1.23h-.312a.145.145 0 0 1-.08-.024h.001a.1646.1646 0 0 1-.05-.058v-.001l-.264-.615h-1.324l-.273.615a.1421.1421 0 0 1-.13.082h-.311l1.163-2.546h.403l1.179 2.546zm-1.92-.945h1.093l-.461-1.036a1.4961 1.4961 0 0 1-.084-.227l-.003-.012-.045.133c-.015.045-.03.081-.046.115l.003-.007-.458 1.034zm3.595-1.589c.023.011.043.026.058.045l1.697 1.919v-1.976h.347v2.545h-.199a.1866.1866 0 0 1-.075-.016h.001a.2075.2075 0 0 1-.062-.047l-1.695-1.917c.001.013.001.028.001.044s0 .031-.002.046v-.002 1.892h-.347v-2.545h.211a.18.18 0 0 1 .066.012h-.001zm4.959 1.522v1.011h-.388v-1.011l-1.072-1.533h.355c.028 0 .054.008.076.022h-.001c.021.016.038.035.052.056l.001.001.671.989c.027.042.05.081.07.118s.035.072.049.108l.05-.11a.7895.7895 0 0 1 .068-.119l-.002.003.661-.996a.2863.2863 0 0 1 .05-.054.1268.1268 0 0 1 .077-.025h.358l-1.074 1.54zm-15.766-5.805c.169.019.339.034.512.047 2.616-1.017 4.829-2.681 6.363-4.785s2.319-4.553 2.259-7.043L18.86 9.721c.586 2.651.312 5.39-.792 7.913s-2.994 4.729-5.459 6.372z"/><path d="m11.579 23.891.078.013c2.634-1.637 4.642-3.923 5.765-6.562s1.308-5.51.533-8.242l-4.106-3.568c1.661 2.933 2.33 6.215 1.928 9.465s-1.857 6.334-4.196 8.893zm13.927-8.723c-.698 2.735-2.392 5.202-4.832 7.035-.712.538-1.481 1.017-2.296 1.432 1.986-.507 3.812-1.404 5.337-2.621s2.707-2.723 3.456-4.4l-1.665-1.445z"/><path d="m24.853 14.765-2.371-2.06c-.045 2.349-.814 4.644-2.226 6.648s-3.416 3.642-5.803 4.745h.012c.561 0 1.114-.03 1.66-.088l-.068.006c2.231-.791 4.202-2.05 5.737-3.664s2.586-3.533 3.06-5.586zM11.923 4.028 9.094 1.567c-2.529.849-4.704 2.342-6.24 4.282S.492 10.088.484 12.444c.009 2.603 1.018 5.128 2.865 7.177s4.429 3.504 7.335 4.135c2.594-2.746 4.113-6.14 4.336-9.688s-.862-7.065-3.097-10.04zm19.465 10.359c-.01-3.088-1.427-6.047-3.94-8.23s-5.919-3.414-9.473-3.423c-1.642-.001-3.271.262-4.803.777l17.32 15.048c.593-1.33.897-2.744.896-4.171z"/></symbol><symbol id="icon-client-four" viewBox="0 0 57 32"><path d="M12.878 11.255h-.002c-1.279 0-2.316.921-2.316 2.058v.001c0 1.137 1.037 2.058 2.316 2.058h.002c1.279 0 2.316-.921 2.316-2.058v-.001c0-1.137-1.037-2.058-2.316-2.058zm17.094-.658c-.004-1.579-.711-3.092-1.967-4.208S25.046 4.644 23.27 4.64c-1.777.003-3.48.631-4.737 1.748s-1.964 2.63-1.968 4.209v8.706s13.405-1.327 13.407-8.704v-.001zM5.867 22.16c.003 1.099.496 2.151 1.369 2.928s2.058 1.215 3.294 1.218c1.236-.003 2.42-.441 3.294-1.218s1.366-1.829 1.37-2.927v-6.058s-9.328.924-9.328 6.056zm4.664 1.085c-.242 0-.478-.064-.679-.183s-.357-.289-.45-.487c-.092-.198-.117-.417-.069-.627s.163-.404.334-.556c.171-.152.388-.255.625-.297s.482-.02.706.062c.223.082.414.221.548.4s.206.388.206.603v.002c0 .15-.034.293-.094.42l.003-.006c-.061.132-.151.252-.264.353s-.248.182-.397.236c-.139.053-.299.083-.467.083h-.002v-.004zm9.426-.597h-.9v.93h-.469v-2.275h1.481v.38h-1.013v.588h.9v.378zm2.253-.157c0 .224-.04.42-.119.589s-.193.299-.341.391c-.147.092-.316.137-.506.137-.189 0-.357-.045-.505-.136s-.263-.22-.344-.387c-.081-.169-.122-.363-.123-.581v-.112c0-.224.04-.421.12-.591.081-.171.195-.302.342-.392.148-.092.317-.137.506-.137s.358.046.505.137c.148.091.262.221.342.392.081.17.122.366.122.589v.102zm-.475-.103c0-.238-.043-.42-.128-.544s-.207-.186-.366-.186c-.157 0-.279.061-.364.184-.085.122-.129.301-.13.538v.111c0 .232.043.413.128.541s.208.192.369.192c.157 0 .278-.061.363-.184.084-.124.127-.304.128-.541v-.111zm1.995.592c0-.089-.031-.156-.094-.203-.062-.048-.175-.098-.337-.15-.163-.053-.291-.105-.386-.156-.258-.14-.388-.328-.388-.564 0-.123.034-.232.103-.328.07-.097.169-.172.298-.227.13-.054.276-.081.438-.081.163 0 .307.03.434.089.127.058.226.141.295.248.071.107.106.229.106.366h-.469c0-.104-.033-.185-.098-.242s-.158-.087-.277-.087c-.115 0-.204.024-.267.073-.064.048-.095.111-.095.191 0 .074.037.136.111.186.075.05.185.097.33.141.267.08.461.18.583.298s.183.267.183.444c0 .197-.075.352-.223.464-.149.111-.349.167-.602.167-.175 0-.334-.032-.478-.095-.144-.065-.254-.153-.33-.264-.075-.111-.112-.241-.112-.388h.47c0 .251.15.377.45.377.111 0 .198-.022.261-.067.063-.046.094-.109.094-.191zm2.502-1.298h-.697v1.895h-.469v-1.895h-.688v-.38h1.853v.38zm1.638.909h-.9v.609h1.056v.377h-1.525v-2.275h1.522v.38H26.97v.542h.9v.367zm1.273.153h-.373v.833h-.469v-2.275h.845c.269 0 .476.06.622.18s.219.289.219.508c0 .155-.034.285-.102.389-.067.103-.168.185-.305.247l.492.93v.022h-.503l-.427-.833zm-.373-.379h.378c.118 0 .209-.03.273-.089.065-.06.097-.143.097-.248 0-.107-.031-.192-.092-.253-.06-.061-.154-.092-.28-.092h-.377v.683zm2.84.411v.802h-.469v-2.275h.888c.171 0 .321.031.45.094.13.063.23.152.3.267s.105.245.105.392c0 .223-.077.399-.23.528-.152.128-.363.192-.633.192h-.411zm0-.38h.419c.124 0 .218-.029.283-.088s.098-.142.098-.25c0-.111-.033-.202-.098-.27s-.156-.104-.272-.106h-.43v.714zm2.966.195h-.9v.609h1.056v.377h-1.525v-2.275h1.522v.38h-1.053v.542h.9v.367zm2.175-.909h-.697v1.895h-.469v-1.895h-.688v-.38h1.853v.38zm1.638.909h-.9v.609h1.056v.377H37.02v-2.275h1.522v.38h-1.053v.542h.9v.367zm1.273.153h-.373v.833h-.469v-2.275h.845c.269 0 .476.06.622.18s.219.289.219.508c0 .155-.034.285-.102.389-.067.103-.168.185-.305.247l.492.93v.022h-.503l-.427-.833zm-.373-.379h.378c.118 0 .209-.03.273-.089.065-.06.097-.143.097-.248 0-.107-.031-.192-.092-.253-.06-.061-.154-.092-.28-.092h-.377v.683zm2.755.615c0-.089-.031-.156-.094-.203-.063-.048-.175-.098-.337-.15-.163-.053-.291-.105-.386-.156-.258-.14-.387-.328-.387-.564 0-.123.034-.232.103-.328.07-.097.169-.172.298-.227s.276-.081.438-.081c.163 0 .307.03.434.089.127.058.225.141.295.248.071.107.106.229.106.366h-.469c0-.104-.033-.185-.098-.242s-.158-.087-.277-.087c-.115 0-.204.024-.267.073-.064.048-.095.111-.095.191 0 .074.037.136.111.186.075.05.185.097.33.141.267.08.461.18.583.298s.183.267.183.444c0 .197-.075.352-.223.464-.149.111-.349.167-.602.167-.175 0-.334-.032-.478-.095-.144-.065-.254-.153-.33-.264s-.113-.241-.113-.388h.47c0 .251.15.377.45.377.111 0 .198-.022.261-.067.063-.046.094-.109.094-.191z"/></symbol><symbol id="icon-client-five" viewBox="0 0 32 32"><path d="M2.417 23.742c.124.14.19.316.186.496.001.011.001.025.001.038 0 .111-.025.216-.069.31l.002-.004a.7984.7984 0 0 1-.222.283c-.24.166-.538.248-.839.229H.001v-3.145h1.445c.285-.017.568.056.801.209.093.072.167.162.216.264s.071.213.064.325c.008.174-.051.344-.168.481-.112.125-.267.212-.44.246.196.033.372.128.498.269zm-1.731-.475h.618c.14.009.28-.028.393-.105a.3811.3811 0 0 0 .105-.137l.001-.002c.018-.04.028-.088.028-.137 0-.011 0-.021-.001-.032v.001c.001-.008.001-.017.001-.027 0-.051-.011-.099-.03-.142l.001.002a.381.381 0 0 0-.103-.14.6364.6364 0 0 0-.405-.106H.686v.825zm1.071 1.206a.3916.3916 0 0 0 .113-.142l.001-.002a.3523.3523 0 0 0 .033-.151c0-.009 0-.017-.001-.026v.001c0-.007.001-.014.001-.022 0-.056-.013-.11-.035-.157l.001.002a.4115.4115 0 0 0-.115-.145l-.001-.001c-.121-.082-.269-.122-.42-.114H.686v.865h.656c.148.008.294-.031.415-.109zm3.613.621-.804-1.229h-.302v1.229h-.691v-3.145h1.309c.33-.021.656.075.911.267.183.171.293.396.311.634s-.058.475-.214.667c-.162.169-.382.282-.624.32l.856 1.257H5.37zm-1.106-1.658h.566c.393 0 .589-.159.589-.476 0-.008.001-.017.001-.026a.44.44 0 0 0-.033-.167l.001.003a.4835.4835 0 0 0-.112-.163c-.124-.095-.284-.14-.445-.128h-.572l.007.957zm4.886 1.025H7.772l-.243.633h-.725l1.265-3.11h.784l1.26 3.11h-.725l-.238-.633zm-.185-.476-.503-1.328-.503 1.328h1.007zm4.916 1.109h-.686l-1.539-2.139v2.139h-.685v-3.145h.685l1.539 2.151v-2.151h.686v3.145zm3.917-.753c-.142.237-.358.431-.621.555-.299.138-.63.206-.965.198H14.99v-3.145h1.222c.334-.008.665.058.965.194.263.121.479.313.621.549.141.256.215.538.215.825s-.074.569-.215.825zm-.786-.075c.196-.209.304-.475.304-.751s-.108-.542-.304-.751c-.237-.189-.546-.285-.859-.267h-.477v2.036h.477c.314.018.622-.078.859-.267zM9.579 4.453s8.859 3.063 8.671 7.494v7.496s-8.853-3.064-8.668-7.496l-.003-7.494zm16.564 13.235c1.673-1.054 3.609-1.707 5.629-1.899v-2.346c-2.328.822-4.303 2.311-5.629 4.246z"/><path d="M25.138 18.395c1.369-2.525 3.744-4.473 6.634-5.444V6.19s-12.617 4.362-12.35 10.673v10.672s.562-.195 1.447-.561c0-.341 0-.685.04-1.031.261-2.93 1.782-5.645 4.229-7.548z"/><path d="M23.938 22.359c.074-.807.23-1.549.462-2.257l-.02.072c-1.524 1.644-2.446 3.683-2.638 5.831-.018.203-.029.406-.034.615a37.588 37.588 0 0 0 2.427-1.171c-.151-.655-.237-1.407-.237-2.18 0-.32.015-.637.044-.95l-.003.04zm.502.038c-.025.259-.039.561-.039.866 0 .684.071 1.351.206 1.995l-.011-.063c3.447-1.889 7.32-4.807 7.171-8.333v-.307c-2.463.252-4.767 1.238-6.559 2.806-.419.972-.678 1.995-.769 3.036z"/></symbol><symbol id="icon-client-six" viewBox="0 0 57 32"><path d="M28.494 14.618c-.236-.315-.349-.686-.323-1.061v-1.538c0-.471.107-.83.321-1.075s.581-.367 1.102-.366c.489 0 .837.104 1.042.313.224.266.333.592.308.92v.361h-.875v-.366c0-.014.001-.031.001-.048 0-.11-.009-.217-.028-.321l.002.011c-.013-.081-.057-.156-.125-.213a.505.505 0 0 0-.317-.083c-.12-.008-.239.024-.333.088-.076.063-.127.145-.145.235-.022.105-.035.226-.035.349v.033-.002 1.866c-.014.18.025.36.112.524.044.055.104.099.175.127a.4798.4798 0 0 0 .228.029h-.002c.112.008.223-.022.31-.084.071-.061.117-.141.13-.227.018-.101.028-.217.028-.336v-.04.002-.379h.875v.346c.025.342-.082.682-.303.967-.201.228-.544.343-1.047.343s-.884-.122-1.1-.375zm3.644.015c-.221-.239-.332-.588-.332-1.05v-1.618c0-.457.11-.802.332-1.037s.591-.351 1.109-.35c.515 0 .882.117 1.103.35.221.235.333.58.333 1.037v1.618c0 .457-.112.807-.337 1.048s-.591.361-1.1.361-.886-.122-1.109-.36zm1.517-.388a.906.906 0 0 0 .105-.479v-1.98a.8806.8806 0 0 0-.103-.469c-.044-.057-.106-.101-.179-.129a.4688.4688 0 0 0-.171-.031c-.021 0-.042.001-.062.004h.002a.4707.4707 0 0 0-.235.029l.003-.001c-.073.028-.135.072-.18.129a.8534.8534 0 0 0-.105.469v1.99c-.011.165.025.329.105.479.051.05.114.091.185.119.066.027.143.042.224.042h.001c.078 0 .154-.014.225-.042a.5402.5402 0 0 0 .185-.119v-.009zm2.082-3.619h.942l.708 2.984.725-2.984h.917l.092 4.308h-.678l-.072-2.994-.699 2.994h-.544l-.725-3.005-.067 3.005h-.685l.085-4.308zm4.441 0h1.468c.846 0 1.268.408 1.268 1.223 0 .781-.445 1.171-1.335 1.17h-.5v1.915h-.906l.005-4.308zm1.253 1.841c.09.01.18.003.266-.021a.6539.6539 0 0 0 .233-.116l-.001.001c.104-.146.15-.316.13-.486.001-.014.001-.031.001-.048 0-.122-.016-.24-.047-.352l.002.009a.3056.3056 0 0 0-.067-.118.3898.3898 0 0 0-.112-.086l-.002-.001a.926.926 0 0 0-.356-.07c-.017 0-.034 0-.051.001h.002-.351v1.287h.351zm2.789-1.841h.973l.998 4.308h-.844l-.197-.993h-.868l-.203.993h-.857l.998-4.308zm.832 2.815-.339-1.808-.339 1.808h.678zm1.946-2.815h.634l1.214 2.457v-2.457h.752v4.308h-.603l-1.221-2.565v2.565h-.777l.002-4.308zm4.361 2.665-1.009-2.659h.85l.616 1.708.578-1.708h.832l-.997 2.659v1.642h-.87v-1.642zm-21.466 3.526v.225h-.739v1.75h-.31v-1.75h-.743v-.225h1.792zm2.318 1.976h-.245a.1052.1052 0 0 1-.061-.019.1091.1091 0 0 1-.04-.045v-.001l-.214-.469h-1.026l-.214.469a.1258.1258 0 0 1-.033.053.1083.1083 0 0 1-.062.019h-.244l.906-1.976h.315l.917 1.968zm-1.501-.734h.855l-.362-.804a1.2783 1.2783 0 0 1-.064-.176l-.003-.01c-.013.038-.024.073-.034.105l-.033.083-.359.802zm3.063.54c.057.003.114.003.17 0 .054-.005.104-.013.152-.025l-.007.001c.052-.011.096-.024.138-.038l-.008.002c.04-.014.08-.031.121-.048v-.444h-.366a.0587.0587 0 0 1-.023-.004h.001a.0836.0836 0 0 1-.023-.012c-.006-.004-.01-.01-.014-.016a.0342.0342 0 0 1-.004-.018v-.154h.703v.757c-.11.069-.237.125-.373.159l-.009.002a1.59 1.59 0 0 1-.219.04l-.007.001a2.633 2.633 0 0 1-.261.012h-.016c-.159 0-.312-.027-.454-.076l.01.003a1.1044 1.1044 0 0 1-.362-.206c-.101-.09-.18-.196-.234-.313s-.083-.253-.083-.397v-.013.001-.012c0-.145.03-.282.084-.407l-.003.007a.9066.9066 0 0 1 .234-.313c.103-.089.227-.159.362-.205.14-.047.301-.074.468-.074h.019-.001c.084 0 .169.006.252.017.074.01.146.027.216.05.063.021.124.047.181.078.056.031.108.065.158.103l-.087.122a.0686.0686 0 0 1-.029.027.092.092 0 0 1-.041.01.111.111 0 0 1-.057-.016h.001a.892.892 0 0 1-.094-.05l.005.003a.6873.6873 0 0 0-.116-.051l-.006-.002a1.0266 1.0266 0 0 0-.16-.043l-.007-.001a1.3487 1.3487 0 0 0-.218-.017h-.012.001-.011c-.121 0-.237.02-.346.057l.008-.002a.7602.7602 0 0 0-.266.156.7041.7041 0 0 0-.169.246c-.038.098-.061.211-.061.329s.022.232.063.336l-.002-.006c.04.093.101.178.181.249.074.068.164.121.265.156.115.034.237.047.359.039zm2.888-.032h.989v.225h-1.292v-1.976h.31l-.007 1.75zm2.018.226h-.31v-1.976h.31v1.976zm1.153-1.967c.019.009.034.021.047.036l1.324 1.489c-.001-.011-.001-.023-.001-.035s0-.025.001-.037v.002-1.472h.27v1.984h-.166c-.02 0-.04-.004-.058-.012h.001a.2036.2036 0 0 1-.049-.037l-1.323-1.488v1.536h-.259v-1.976h.161c.018 0 .036.003.052.01h-.001zm3.922-.009v.217h-1.098v.652h.89v.21h-.89v.674h1.098v.217h-1.417v-1.971h1.417zM11.287 4.616l13.758 3.373v11.818l-13.758-3.371V4.616zm-.883-1.008v13.401l15.521 3.806V7.416L10.404 3.609z"/><path d="M18.723 27.036 3.2 23.227v-13.4l15.523 3.808v13.401zM10.662 4.464l13.578 3.33-5.775 4.987-13.58-3.332 5.776-4.985zm-.258-.856L3.2 9.827l15.523 3.807 7.202-6.219-15.521-3.807zm9.192 22.674 6.329-5.465-6.329-1.553v7.019z"/></symbol><symbol id="icon-instagram" viewBox="0 0 32 32"><path d="M31.969 9.408c-.075-1.7-.35-2.869-.744-3.882-.406-1.075-1.032-2.038-1.851-2.838A7.8895 7.8895 0 0 0 26.596.862l-.054-.018C25.523.45 24.36.175 22.66.1 20.947.019 20.403 0 16.059 0s-4.888.019-6.595.094c-1.7.075-2.869.35-3.882.744-1.075.406-2.038 1.031-2.838 1.85A7.8895 7.8895 0 0 0 .918 5.466L.9 5.52C.506 6.539.231 7.701.156 9.402c-.081 1.713-.1 2.257-.1 6.602s.019 4.888.094 6.595c.075 1.7.35 2.869.744 3.882.427 1.11 1.056 2.057 1.849 2.837l.001.001c.78.792 1.724 1.419 2.778 1.826l.054.018c1.019.394 2.182.669 3.882.744 1.706.075 2.25.094 6.595.094s4.888-.019 6.595-.094c1.7-.075 2.869-.35 3.882-.744 2.157-.85 3.832-2.525 4.663-4.627l.019-.055c.394-1.019.669-2.182.744-3.882.075-1.707.094-2.251.094-6.595s-.006-4.888-.081-6.595zm-2.882 13.065c-.069 1.563-.331 2.407-.55 2.969-.551 1.4-1.639 2.487-3.002 3.026l-.036.013c-.563.219-1.413.481-2.969.55-1.688.075-2.194.094-6.464.094s-4.782-.019-6.464-.094c-1.563-.069-2.407-.331-2.969-.55-.694-.256-1.325-.663-1.838-1.194a4.9797 4.9797 0 0 1-1.183-1.804l-.011-.034c-.219-.563-.481-1.413-.55-2.969-.075-1.688-.094-2.194-.094-6.464s.019-4.782.094-6.464c.069-1.563.331-2.407.55-2.969.256-.694.663-1.325 1.2-1.838a4.9797 4.9797 0 0 1 1.804-1.183l.034-.011c.563-.219 1.413-.481 2.969-.55 1.688-.075 2.194-.094 6.464-.094 4.276 0 4.782.019 6.464.094 1.563.069 2.407.331 2.969.55.694.256 1.325.662 1.838 1.194.531.519.938 1.144 1.194 1.838.219.563.481 1.413.55 2.969.075 1.688.094 2.194.094 6.464s-.019 4.77-.094 6.458z"/><path d="M16.059 7.783c-4.538 0-8.22 3.682-8.22 8.22s3.682 8.22 8.22 8.22 8.22-3.682 8.22-8.22-3.682-8.22-8.22-8.22zm0 13.552c-2.944 0-5.332-2.388-5.332-5.332s2.388-5.332 5.332-5.332 5.332 2.388 5.332 5.332-2.388 5.332-5.332 5.332zM26.524 7.458c0 1.06-.859 1.919-1.919 1.919s-1.919-.859-1.919-1.919.859-1.919 1.919-1.919 1.919.859 1.919 1.919z"/></symbol><symbol id="icon-twitter" viewBox="0 0 32 32"><path d="M32 6.078c-1.19.522-2.458.868-3.78 1.036 1.36-.812 2.398-2.088 2.886-3.626-1.268.756-2.668 1.29-4.16 1.588C25.742 3.794 24.026 3 22.154 3c-3.632 0-6.556 2.948-6.556 6.562 0 .52.044 1.02.152 1.496-5.454-.266-10.28-2.88-13.522-6.862-.566.982-.898 2.106-.898 3.316 0 2.272 1.17 4.286 2.914 5.452-1.054-.02-2.088-.326-2.964-.808v.072c0 3.188 2.274 5.836 5.256 6.446-.534.146-1.116.216-1.72.216-.42 0-.844-.024-1.242-.112.85 2.598 3.262 4.508 6.13 4.57-2.214 1.744-5.044 2.798-8.12 2.798h-.015.001c-.538 0-1.054-.024-1.57-.09C2.906 27.93 6.35 29 10.064 29c12.072 0 18.672-10 18.672-18.668 0-.29-.01-.57-.024-.848C30.014 8.56 31.108 7.406 32 6.078z"/></symbol><symbol id="icon-facebook" viewBox="0 0 32 32"><path d="M21.329 5.313h2.921V.225C23.746.156 22.013 0 19.994 0c-4.212 0-7.097 2.649-7.097 7.519V12H8.249v5.688h4.648V32h5.699V17.689h4.46l.708-5.688h-5.169V8.082c.001-1.644.444-2.769 2.735-2.769z"/></symbol><symbol id="icon-linkedin" viewBox="0 0 32 32"><path d="M31.992 32v-.001H32V20.263c0-5.741-1.236-10.164-7.948-10.164-3.227 0-5.392 1.771-6.276 3.449h-.093v-2.913h-6.364v21.364h6.627V21.42c0-2.785.528-5.479 3.977-5.479 3.399 0 3.449 3.179 3.449 5.657v10.401h6.62zM.528 10.636h6.635V32H.528V10.636zM3.843 0C1.722 0 0 1.721 0 3.843s1.721 3.879 3.843 3.879c2.121 0 3.843-1.757 3.843-3.879C7.685 1.722 5.963 0 3.843 0z"/></symbol><symbol id="icon-close" viewBox="0 0 32 32"><path d="M32.011 3.224 28.787 0 16.005 12.782 3.223 0-.001 3.224l12.782 12.782L-.001 28.788l3.224 3.224L16.005 19.23l12.782 12.782 3.224-3.224-12.782-12.782L32.011 3.224z"/></symbol><symbol id="icon-user-name" viewBox="0 0 32 32"><path d="M16.01 16.01c4.423 0 8.005-3.582 8.005-8.005S20.433 0 16.01 0 8.005 3.582 8.005 8.005s3.582 8.005 8.005 8.005zm0 4.003C10.667 20.013 0 22.695 0 28.018v2.001c0 1.101.901 2.001 2.001 2.001h28.018c1.101 0 2.001-.901 2.001-2.001v-2.001c0-5.323-10.667-8.005-16.01-8.005z"/></symbol><symbol id="icon-user-tel" viewBox="0 0 32 32"><path d="m27.45 20.875-4.206-.481a3.2595 3.2595 0 0 0-.384-.022c-.911 0-1.735.369-2.332.967l-3.047 3.047c-4.686-2.385-8.528-6.21-10.913-10.913l3.064-3.064c.597-.597.966-1.421.966-2.332 0-.135-.008-.269-.024-.4l.002.016-.48-4.173C9.897 1.862 8.499.589 6.804.589H3.935C2.064.589.507 2.146.623 4.017c.878 14.142 12.188 25.436 26.313 26.314 1.871.116 3.428-1.441 3.428-3.312v-2.865c.016-1.673-1.242-3.08-2.915-3.279z"/></symbol><symbol id="icon-user-mail" viewBox="0 0 43 32"><path d="M37.342.006H5.334c-2.201 0-3.981 1.8-3.981 4.001l-.02 24.006c0 2.201 1.8 4.001 4.001 4.001h32.008c2.201 0 4.001-1.8 4.001-4.001V4.007c0-2.201-1.8-4.001-4.001-4.001zm-.8 8.503-14.143 8.842c-.64.4-1.48.4-2.121 0L6.135 8.509c-.5-.32-.8-.86-.8-1.44 0-1.34 1.46-2.141 2.601-1.44l13.403 8.382 13.403-8.382c1.14-.7 2.601.1 2.601 1.44 0 .58-.3 1.12-.8 1.44z"/></symbol><symbol id="icon-send" viewBox="0 0 32 32"><path d="M32.021 0 0 18.012l10.233 3.79L26.017 7.005 14.011 23.202l.01.004-.012-.004v8.82l5.739-6.695 7.27 2.693L32.021.002z"/></symbol><symbol id="icon-checked" viewBox="0 0 34 32"><path fill="#2196f3" style="fill:var(--color2, #2196f3)" d="M4.268-.004h25.606c2.357 0 4.268 1.911 4.268 4.268v23.472c0 2.357-1.911 4.268-4.268 4.268H4.268C1.911 32.004 0 30.093 0 27.736V4.264C0 1.907 1.911-.004 4.268-.004z"/><path fill="#fff" style="fill:var(--color3, #fff);stroke:var(--color3, #fff)" stroke="#fff" stroke-width=".4267" d="m8.444 16.537-.147-.14-2.205 2.089.162.155 7.607 7.257 16.322-15.571-2.191-2.09-14.131 13.468-5.417-5.168z"/></symbol><symbol id="icon-unchecked" viewBox="0 0 34 32"><path d="M30.348 3.553v24.895H3.793V3.553h26.555zm0-3.557H3.793c-2.086 0-3.794 1.6-3.794 3.557v24.895c0 1.956 1.707 3.556 3.794 3.556h26.555c2.086 0 3.794-1.6 3.794-3.556V3.553c0-1.956-1.707-3.557-3.794-3.557z"/></symbol><symbol id="icon-mobile-btn-icon" viewBox="0 0 48 32"><path d="M0 5.33V-.007h48.031V5.33H0zm0 13.342h48.031v-5.337H0v5.337zm0 13.342h48.031v-5.337H0v5.337z"/></symbol></defs></svg>



